    ___________________\\\\\\\\\/////////___________________
     __________________/////////\\\\\\\\\__________________
      ________________/////////  \\\\\\\\\________________
       ______________/////////    \\\\\\\\\______________
        ____________/////////      \\\\\\\\\____________
         __________/////////        \\\\\\\\\__________
          ________/////////   File   \\\\\\\\\________
           ______/////////            \\\\\\\\\______
            ____/////////  Downloaded  \\\\\\\\\____
            *__/////////                \\\\\\\\\__*
           ***/////////       From       \\\\\\\\\***
          ***/////////                    \\\\\\\\\***
         ***/////////  AtomicTorrents.net  \\\\\\\\\***
        ****\\\\\\\\\                      /////////****
       ******\\\\\\\\********      *********///////******
      ********\\\\\\\**********  **********///////********
        ********\\\\\       For Fast       /////********
         ********\\\\   Download Speeds    ////********
           *******\\\  Get Your Torrents   ///*******
             ******\\          At          //******
               *****\\ AtomicTorrents.net //*****
                 ****\\                  //****
                   ***\\\\\\\\\  /////////***
                     **\\\\\\\\\/////////**
                      */////////\\\\\\\\\*
The Experiment 2010 DVDscr

 
http://www.imdb.com/title/tt0997152/

General
Complete name                    : D:\The Experiment 2010 DVDscr Xvid.avi
Format                           : AVI
Format/Info                      : Audio Video Interleave
Format profile                   : OpenDML
File size                        : 1.17 GiB
Duration                         : 17mn 54s
Overall bit rate                 : 9 343 Kbps
Writing application              : Lavf52.75.0

Video
ID                               : 0
Format                           : MPEG-4 Visual
Format profile                   : Simple@L3
Format settings, BVOP            : No
Format settings, QPel            : No
Format settings, GMC             : No warppoints
Format settings, Matrix          : Default (H.263)
Codec ID                         : XVID
Codec ID/Hint                    : XviD
Duration                         : 17mn 54s
Bit rate                         : 1 593 Kbps
Width                            : 624 pixels
Height                           : 360 pixels
Display aspect ratio             : 16:9
Frame rate                       : 29.970 fps
Color space                      : YUV
Chroma subsampling               : 4:2:0
Bit depth                        : 8 bits
Scan type                        : Progressive
Bits/(Pixel*Frame)               : 0.237
Stream size                      : 204 MiB (17%)
Writing library                  : XviD 1.2.1 (UTC 2008-12-04)

Audio
ID                               : 1
Format                           : MPEG Audio
Format version                   : Version 1
Format profile                   : Layer 3
Codec ID                         : 55
Codec ID/Hint                    : MP3
Duration                         : 13mn 20s
Bit rate mode                    : Constant
Bit rate                         : 128 Kbps
Channel(s)                       : 2 channels
Sampling rate                    : 44.1 KHz
Stream size                      : 12.2 MiB (1%)
Alignment                        : Aligned on interleaves
Interleave, duration             : 35 ms (1.05 video frame)

Screens
